<?xml version="1.0" standalone="no"?>
<!DOCTYPE svg PUBLIC "-//W3C//DTD SVG 20010904//EN"
 "http://www.w3.org/TR/2001/REC-SVG-20010904/DTD/svg10.dtd">
<svg version="1.0" xmlns="http://www.w3.org/2000/svg"
 width="612.000000pt" height="612.000000pt" viewBox="0 0 612.000000 612.000000"
 preserveAspectRatio="xMidYMid meet">
<metadata>
Created by potrace 1.11, written by Peter Selinger 2001-2013
</metadata>
<g transform="translate(0.000000,612.000000) scale(0.100000,-0.100000)"
fill="#000000" stroke="none">
<path d="M2725 5324 c-336 -333 -704 -698 -818 -812 -124 -122 -203 -194 -193
-176 8 18 19 58 24 90 25 157 -70 313 -208 343 -125 27 -240 5 -314 -60 -24
-21 -47 -35 -51 -31 -5 4 -5 2 -1 -5 7 -13 -13 -65 -23 -58 -4 2 -7 -4 -8 -13
0 -9 -3 -37 -6 -62 -7 -50 -10 -102 -7 -110 4 -12 10 -47 13 -72 1 -14 5 -24
10 -21 4 2 7 -2 7 -10 0 -8 7 -20 15 -27 9 -7 13 -15 11 -17 -3 -3 16 -21 42
-41 52 -39 113 -61 178 -64 28 -1 41 -5 37 -12 -4 -6 0 -5 9 2 9 7 22 12 30
11 19 -4 78 11 113 28 17 8 -329 -343 -768 -780 l-797 -794 0 -1200 0 -1200
25 2 c14 2 25 -2 25 -8 0 -8 3 -8 8 -2 10 14 222 14 214 0 -4 -6 0 -6 9 0 15
12 128 13 145 2 6 -3 14 -3 18 1 12 11 475 9 468 -3 -4 -6 0 -6 9 0 15 12 134
13 145 2 4 -4 13 -2 20 4 9 7 19 7 33 0 11 -6 22 -8 24 -4 6 10 1034 9 1043 0
4 -4 13 -2 20 4 9 7 19 7 32 0 11 -6 23 -7 27 -3 10 10 254 9 247 -2 -3 -5 1
-5 9 0 17 10 139 12 146 1 2 -4 10 -4 16 0 19 12 436 10 429 -2 -3 -5 1 -4 10
3 11 9 18 10 23 2 3 -6 12 -7 18 -3 18 11 956 10 949 -2 -4 -6 0 -6 9 0 15 12
128 13 145 2 6 -3 14 -3 18 1 11 11 475 9 468 -2 -3 -5 1 -6 9 -1 20 13 119
13 111 0 -3 -5 1 -4 10 3 12 9 18 10 23 2 5 -8 11 -8 20 0 10 8 19 8 33 1 11
-6 23 -7 27 -3 11 11 414 9 407 -3 -4 -6 0 -6 9 0 15 12 128 13 145 2 6 -3 14
-3 18 1 11 11 356 9 349 -2 -4 -5 -1 -6 8 0 8 5 46 9 84 9 l70 0 3 2340 2
2340 -1377 0 -1378 0 0 508 c0 279 -2 507 -5 507 -3 0 -280 -273 -615 -606z"/>
</g>
</svg>
